<svg width="188" height="26" viewBox="0 0 188 26" fill="none" xmlns="http://www.w3.org/2000/svg">
    <path d="M26.124 4.4H3.624V26H0.0240021V0.799998H26.124V4.4ZM23.028 15.2H5.424V11.6H23.028V15.2Z" fill="white"/>
    <path d="M58.8542 9.8C58.8542 11.456 58.4462 12.968 57.6302 14.336C56.8382 15.68 55.7582 16.76 54.3902 17.576C53.0222 18.392 51.5102 18.8 49.8542 18.8H35.3822V15.236H49.8542C50.8622 15.236 51.7742 14.996 52.5902 14.516C53.4062 14.012 54.0542 13.352 54.5342 12.536C55.0142 11.696 55.2542 10.784 55.2542 9.8C55.2542 8.792 55.0142 7.88 54.5342 7.064C54.0542 6.248 53.4062 5.6 52.5902 5.12C51.7742 4.64 50.8622 4.4 49.8542 4.4H33.3662V26H29.7662V0.799998H49.8542C51.5102 0.799998 53.0222 1.208 54.3902 2.024C55.7582 2.816 56.8382 3.896 57.6302 5.264C58.4462 6.632 58.8542 8.144 58.8542 9.8Z" fill="white"/>
    <path d="M90.015 0.799998L76.767 26H72.663L59.415 0.799998H63.519L74.715 22.112L85.911 0.799998H90.015Z" fill="white"/>
    <path d="M119.639 26H93.5748V0.799998H119.639V4.4H97.1748V22.4H119.639V26ZM116.579 15.2H98.9748V11.6H116.579V15.2Z" fill="white"/>
    <path d="M148.174 26H124.09V0.799998H127.69V22.4H148.174V26Z" fill="white"/>
    <path d="M155.147 26H151.547V0.799998H155.147V26Z" fill="white"/>
    <path d="M187.46 26H182.744L172.88 15.848L163.052 26H158.336L170.54 13.4L158.336 0.799998H163.052L187.46 26ZM187.46 0.799998L176.48 12.104L174.14 9.692L182.744 0.799998H187.46Z" fill="white"/>
    <path d="M75 11L69.5 0.5H80.5L75 11Z" fill="#FF0000"/>
</svg>
